name processed_emg_signals
nRows=11
nColumns=35
 
endheader
time	FP1_FX	FP1_FY	FP1_FZ	FP1_MX	FP1_MY	FP1_MZ	FP2_FX12	FP2_FX34	FP2_FY14	FP2_FY23	FP2_FZ1	FP2_FZ2	FP2_FZ3	FP2_FZ4	FP3_FX12	FP3_FX34	FP3_FY14	FP3_FY23	FP3_FZ1	FP3_FZ2	FP3_FZ3	FP3_FZ4	LGLTMED	LRF	LADDLONG	LST	LTA	LGM	RGLTMED	RRF	RADDLONG	RST	RTA	RGM
0.15378799999999992	17.772945761680603	-3.5591669380664825	-35.69466769695282	-5.313954502344132	41.82879328727722	-5.725947767496109	-4.636394898345088	32.6503916930551	-40.54035394058246	-19.67197773434464	-72.36114647558497	-70.05640232012593	-182.5122150066927	-57.1816001367506	1.307027331934023	-0.1037319862463448	-3.334739071955255	-1.1806217033088728	-1.2132070639179915	1.2914797202321893	3.5613521183682906	0.4304936381805646	0.0086976401507854	-0.0114442687481641	0.0447089299559593	-0.0083924643695354	-0.0144960731267929	0.0010681292042136	-0.0233463048934936	-0.0035095773637294	0.0083924597129225	-0.0032043969258666	0.0053406553342938	0.0108339032158255
0.15478799999999993	19.306477904319763	2.712291106581688	-34.49683487415314	-4.940108209848404	39.799344539642334	-2.39948108792305	-32.8460210080998	12.14852850125385	-65.01754797759531	-11.042196631296974	-98.42864230597296	-63.380576809943705	-181.39957936191783	-78.48065028286874	0.6846335150897431	-0.6016470397217688	-4.038969623748415	-1.594875043433177	-1.3697499879273778	0.6653080241946441	3.5613521183682906	-0.5087639058757532	-0.0013733142986893	0.0025940313935279	0.0050354748964309	0.0123598054051399	-0.0236514862626791	0.0038147531449794	0.0086976401507854	-0.0337224416434764	-0.0080872839316725	0.000152587890625	-0.011749449186027	0.026398105546832
0.15578799999999993	16.117341816425323	-7.640954852104187	-30.697336792945865	-4.741740971803665	35.73281466960907	-8.57938528060913	-45.13148926572285	3.227870325401	-67.80261701419477	6.844985505003365	-113.13134756884028	-56.94317765851156	-190.93647849147965	-95.64705319403583	0.4356759883520311	-0.7261258030906248	-4.618924552758756	-1.88485238152019	-1.526292911936764	0.7435794861993372	3.717895042377677	0.4304936381805646	-0.0096131861209869	-0.0279240123927593	0.0273136459290981	0.0099183619022369	0.0004577683284878	0.0184634141623973	-0.0090028252452611	-0.0215152241289615	-0.0004577729851007	0.0291447304189205	0.0218203999102115	-0.443579763174057
0.15678799999999993	14.187075197696686	-8.556496351957321	-27.416646480560303	-4.482337459921837	32.02487230300903	-7.366292923688888	-45.5618729946591	4.049509818818819	-68.0772044146579	16.376971065744783	-121.55560329260516	-58.77108073800355	-212.2355325181088	-107.4886887180346	0.3526901461061271	-1.0995620931971928	-4.494648424303307	-1.3463230393585943	-1.3697499879273778	0.5087651001852578	3.717895042377677	0.4304936381805646	0.0160219706594944	-0.0022888556122779	0.0068665575236082	-0.0007629534229636	-0.0181582383811473	0.0022888509556651	0.0074769183993339	-0.0636301264166832	-0.009308005683124	-0.0282291918992996	-0.0083924643695354	-0.030975816771388
0.15778799999999993	14.194704592227936	-2.7809567749500275	-24.76920783519745	-3.612573444843292	28.660258650779724	-5.092698335647583	-49.16143557991563	3.932132611873044	-75.80477770820835	13.278094697602684	-130.61564194364473	-62.903731853465615	-221.45452466198915	-114.72082817009324	0.1867184616143191	-1.3900125410578568	-3.5418656155992494	-0.9734950332467208	-1.2132070639179915	1.604565568250962	4.422337961558014	0.4304936381805646	-0.0019836751744151	-0.0263981111347675	0.0062561966478824	0.0111390836536884	-0.0065613817423582	0.0102235423400998	-0.0550850704312324	-0.1054398417472839	0.0807202234864234	-0.0508125461637973	0.0306706316769123	0.0163271501660347
0.15878799999999993	11.547265201807022	-1.1787593364715576	-21.64873778820038	-3.0937666073441505	24.990463256835938	-2.544441819190979	-49.23968959841977	6.279674362782032	-84.55223392702464	2.6870000557380536	-140.5499054027532	-67.59270467182614	-227.5740284692729	-120.12506842317087	0.1867184616143191	-1.0580691720742408	-3.873268287698693	-1.1391963692964424	-1.1349356019132983	1.0566653342181098	4.187523814405836	0.6653080241946441	0.0114442640915513	0.018158234655857	0.0050354748964309	0.0032043922692537	-0.0080872839316725	0.009613181464374	-0.0181582383811473	0.0343327969312667	-0.0022888556122779	0.0596627742052078	-0.0151064340025186	0.0416571274399757
0.15978799999999993	9.784847497940063	0.2479591639712453	-18.2459756731987	-2.521553263068199	21.15281969308853	-1.895933412015438	-45.79662740855065	12.305031762249088	-88.31796021186165	-4.216824443636824	-145.63624643117146	-74.58642552615675	-239.6540903520217	-122.27086684681126	1.141055647442215	-0.4356753552299608	-3.873268287698693	-1.0563457012715816	-1.1349356019132983	1.682837030255655	4.0309808903964495	0.5870365621899509	0.0016784900799393	-0.0239566676318645	0.0163271501660347	0.0056458357721567	-0.0151064340025186	0.0077820988371968	0.0178530532866716	-0.0254825688898563	0.0050354748964309	0.0117494445294141	-0.0218204036355018	0.0248722024261951
0.16078799999999993	7.862211018800735	1.8501564860343933	-15.491722524166107	-1.895933412015438	17.833982408046722	-0.2021819818764925	-44.11422141246294	15.943721356757692	-89.2986174600992	-6.099685670739063	-150.086804532315	-78.95749523934683	-251.25729951727044	-126.40351796227333	1.348520253056975	-0.3526895129840568	-4.53607363189758	-1.3463230393585943	-1.3697499879273778	0.8218509482040304	3.483080656363597	0.5087651001852578	0.0028992118313908	-0.0468451976776123	0.007171737961471	0.0016784900799393	-0.0111390883103013	0.0074769183993339	0.0102235423400998	-0.0175478775054216	-0.0151064340025186	-0.0114442687481641	0.0349431559443473	-0.006866562180221
0.16178799999999993	6.961929053068161	4.245822876691818	-13.004501163959503	-1.4915693551301956	14.81269598007202	1.2855726294219494	-43.840341899724535	17.626126397642793	-90.35772606239334	-7.354926488807223	-153.98102152800493	-81.58013861946529	-256.50258627750736	-129.90037838943863	1.763449464286495	0.6846335150897431	-4.038969623748415	-1.097771035284012	-1.0566641399086052	1.0566653342181098	3.717895042377677	0.9001224102087235	0.0080872792750597	-0.0538643486797809	0.0053406553342938	0.0041199335828423	-0.0071717426180839	0.0016784900799393	0.0221255794167518	-0.027618832886219	0.0260929241776466	-0.0016784947365522	0.0080872792750597	0.0074769183993339
0.16278799999999993	6.183718517422676	5.909056216478348	-10.753795504570007	-1.1558708734810352	12.249179929494858	2.513923868536949	-42.27531502098782	20.44317554353097	-90.94611887908286	-10.336122952890037	-156.9215641327828	-81.8980378441247	-259.5226017481946	-130.9335489293262	1.390013174179927	0.3526901461061271	-3.583291076029837	-0.9734950332467208	-0.8218497538945257	0.7435794861993372	3.4048091943589043	0.6653080241946441	0.009613181464374	0.0077820988371968	-0.0074769230559468	0.0007629487663507	-0.030060276389122	0.0035095727071166	0.0022888509556651	0.0199893154203891	-0.0248722080141305	0.0306706316769123	0.0080872792750597	0.0233463011682033
0.16378799999999993	4.772259294986725	6.305790692567825	-9.037155658006668	-0.9346149861812592	10.112916678190231	3.2234683632850647	-40.82766343879166	22.516838259302855	-90.04391298490191	-13.00351017011394	-157.23947111846428	-83.32857271355897	-257.69469478819155	-132.1256574400104	1.887928227655351	0.3111972249831751	-3.956119208559869	-0.7249430291721382	-1.0566641399086052	1.2914797202321893	3.4048091943589043	1.213208258227496	0.0086976401507854	0.0245670229196548	-0.0050354795530438	-0.0007629534229636	0.0132753467187285	-0.0032043969258666	-0.0230411253869533	-0.0010681338608264	0.0270084664225578	-0.028534373268485	0.0157167911529541	-0.0196841396391391
